<svg width="100" height="100" xmlns="http://www.w3.org/2000/svg">

 <g>
  <title>background</title>
  <rect fill="none" id="canvas_background" height="102" width="102" y="-1" x="-1"/>
 </g>
 <g>
  <title>Layer 1</title>
  <path fill="#ffffff" id="svg_1" d="m50.022228,0.272348c-27.376727,0 -49.420325,22.587123 -49.420325,50.638872c0,22.404968 14.043905,41.349007 33.776481,48.088713c2.488793,0.546463 3.377648,-1.092925 3.377648,-2.368005c0,-1.275079 0,-4.371701 0,-8.743402c-13.688363,3.096622 -16.532699,-6.92186 -16.532699,-6.92186c-2.311022,-5.828935 -5.5109,-7.468323 -5.5109,-7.468323c-4.444274,-3.096622 0.355542,-3.096622 0.355542,-3.096622c4.977587,0.364308 7.644151,5.282472 7.644151,5.282472c4.444274,7.832631 11.732883,5.464626 14.221676,4.189547c0.533313,-3.278776 1.77771,-5.464626 3.199877,-6.739706c-11.021799,-1.275079 -22.576911,-5.646781 -22.576911,-24.955127c0,-5.646781 1.95548,-10.200636 5.155358,-13.479412c-0.533313,-1.275079 -2.133251,-6.557552 0.533313,-13.297258c0,0 4.266503,-1.457234 13.510592,5.282472c3.910961,-1.092925 8.177464,-1.639388 12.443967,-1.639388s8.533006,0.546463 12.443967,1.639388c9.421861,-6.557552 13.510592,-5.282472 13.510592,-5.282472c2.666564,7.104014 1.066626,12.204332 0.533313,13.297258c3.199877,3.643084 5.155358,8.19694 5.155358,13.479412c0,19.490501 -11.555112,23.680048 -22.576911,24.955127c1.77771,1.639388 3.377648,4.73601 3.377648,9.472019c0,6.739706 0,12.386487 0,13.84372c0,1.275079 0.888855,2.914467 3.377648,2.368005c19.554805,-6.739706 33.776481,-25.683744 33.776481,-48.088713c-0.355542,-27.687441 -22.39914,-50.456717 -49.775867,-50.456717z" class="st1"/>
 </g>
</svg>