<svg width="100" height="100" xmlns="http://www.w3.org/2000/svg">

 <g>
  <title>background</title>
  <rect fill="none" id="canvas_background" height="402" width="582" y="-1" x="-1"/>
 </g>
 <g>
  <title>Layer 1</title>
  <path fill="#ffffff" stroke="null" id="linkedin" d="m79.630071,96.589722l0,-38.801286c0,0 -2.116434,-8.112996 -9.876691,-7.760257c-7.760257,0.352739 -10.22943,1.587325 -13.75682,5.820193l0,40.74135l-19.929751,0l0,-61.552949l19.753382,0l0,8.994844c0,0 6.349301,-12.522233 19.753382,-11.640386c12.169494,0.881847 21.340707,8.289366 23.280771,24.515358l0.529108,0l0,39.683133l-19.753382,0zm-67.196772,-69.489576c-6.525671,0 -11.816755,-5.291084 -11.816755,-11.993125c0,-6.525671 5.291084,-11.993125 11.816755,-11.993125s11.816755,5.291084 11.816755,11.993125c0,6.525671 -5.291084,11.993125 -11.816755,11.993125zm9.876691,69.489576l-19.753382,0l0,-61.552949l19.753382,0l0,61.552949z"/>
 </g>
</svg>