<svg width="100" height="100" xmlns="http://www.w3.org/2000/svg">

 <g>
  <title>background</title>
  <rect fill="none" id="canvas_background" height="402" width="582" y="-1" x="-1"/>
 </g>
 <g>
  <title>Layer 1</title>
  <path fill="#ffffff" stroke="null" id="twitter" d="m99.284281,19.088539c-3.689144,1.581062 -7.553961,2.635103 -11.594451,3.162123c4.216164,-2.459429 7.378287,-6.49992 8.959349,-11.243104c-3.864817,2.283756 -8.256655,4.040491 -12.824166,4.918858c-3.689144,-4.040491 -8.959349,-6.49992 -14.756574,-6.49992c-11.067431,0 -20.202453,9.135022 -20.202453,20.378127c0,1.581062 0.175674,3.162123 0.527021,4.743185c-16.688983,-0.878368 -31.621231,-8.959349 -41.634621,-21.256494c-1.756735,2.98645 -2.810776,6.49992 -2.810776,10.189063c0,7.02694 3.51347,13.351186 8.959349,17.04033c-3.337797,-0.175674 -6.49992,-1.054041 -9.135022,-2.635103c0,0 0,0.175674 0,0.175674c0,9.837716 7.02694,18.094371 16.161962,20.02678c-1.756735,0.527021 -3.51347,0.702694 -5.270205,0.702694c-1.229715,0 -2.635103,-0.175674 -3.864817,-0.351347c2.635103,8.080981 10.01339,14.05388 18.797065,14.229554c-6.851267,5.445879 -15.634942,8.783675 -25.121311,8.783675c-1.581062,0 -3.162123,-0.175674 -4.743185,-0.351347c8.959349,5.797226 19.499759,9.135022 30.918537,9.135022c37.067109,0 57.445236,-31.09421 57.445236,-58.14793c0,-0.878368 0,-1.756735 0,-2.635103c4.216164,-2.635103 7.553961,-6.148573 10.189063,-10.364737z"/>
 </g>
</svg>